<svg width="46" height="46" viewBox="0 0 46 46" fill="none" xmlns="http://www.w3.org/2000/svg">
<path d="M22.75 45.5C35.3145 45.5 45.5 35.3145 45.5 22.75C45.5 10.1855 35.3145 0 22.75 0C10.1855 0 0 10.1855 0 22.75C0 35.3145 10.1855 45.5 22.75 45.5Z" fill="url(#paint0_linear_36_1519)"/>
<path d="M34.1032 13.3393C34.3057 12.0304 33.0613 10.9973 31.8974 11.5082L8.71783 21.6853C7.88324 22.0517 7.9443 23.316 8.80988 23.5916L13.59 25.1139C14.5025 25.4044 15.4903 25.2541 16.287 24.7037L27.0644 17.258C27.3894 17.0334 27.7436 17.4956 27.4659 17.7817L19.7082 25.78C18.9556 26.5559 19.105 27.8707 20.0102 28.4383L28.6959 33.885C29.6701 34.4958 30.9233 33.8822 31.1054 32.7049L34.1032 13.3393Z" fill="white"/>
<defs>
<linearGradient id="paint0_linear_36_1519" x1="22.75" y1="0" x2="22.75" y2="45.5" gradientUnits="userSpaceOnUse">
<stop stop-color="#12A9E9"/>
<stop offset="1" stop-color="#1276E9"/>
</linearGradient>
</defs>
</svg>
