<svg width="27" height="28" viewBox="0 0 27 28" fill="none" xmlns="http://www.w3.org/2000/svg">
    <path
        d="M1 9.98267C1 5.7482 1 3.63096 2.33861 2.31548C3.67723 1 5.83169 1 10.1406 1H16.2344C20.5433 1 22.6977 1 24.0364 2.31548C25.375 3.63096 25.375 5.7482 25.375 9.98267V20.2043C25.375 24.2215 25.375 26.2301 24.0888 26.8445C22.8025 27.4589 21.1954 26.218 17.981 23.736L16.9524 22.9417C15.145 21.5462 14.2413 20.8484 13.1875 20.8484C12.1337 20.8484 11.23 21.5462 9.42264 22.9417L8.39394 23.736C5.17963 26.218 3.57246 27.4589 2.28622 26.8445C1 26.2301 1 24.2215 1 20.2043V9.98267Z"
        fill="#FFD500" stroke="#FFD500" stroke-width="2" />
</svg>